<?xml version="1.0" encoding="UTF-8"?>
<svg id="Layer_2" data-name="Layer 2" xmlns="http://www.w3.org/2000/svg" viewBox="0 0 347.18 97.05">
  <defs>
    <style>
      .cls-1 {
        isolation: isolate;
      }

      .cls-2 {
        fill: #baa0da;
      }

      .cls-3 {
        fill: #3c427a;
      }
    </style>
  </defs>
  <g id="Layer_1-2" data-name="Layer 1">
    <g class="cls-1">
      <path class="cls-2" d="M75.87,47.87l-2,3.88c-1.04,1.85-2.02,3.74-2.94,5.66-.93,1.92-1.94,3.85-3.05,5.77-2,3.48-4.2,6.83-6.6,10.05-2.41,3.22-5.16,6.12-8.27,8.71-2.89,2.37-6.01,4.4-9.38,6.1-3.37,1.7-6.86,3.07-10.49,4.11-3.63,1.04-7.4,1.74-11.32,2.11-3.92.37-7.73-.07-11.43-1.33-1.7-.52-3.39-1.4-5.05-2.66-1.67-1.26-2.98-2.68-3.94-4.27-.96-1.59-1.42-3.29-1.39-5.11.04-1.81.87-3.57,2.5-5.27,1.26-1.26,2.81-2.02,4.66-2.28,1.85-.26,3.44.28,4.77,1.61,1.26,1.33,1.81,2.74,1.67,4.22-.07,1.04-.41,1.89-1,2.55-.59.67-1.07,1.44-1.44,2.33-.44.96-.52,1.79-.22,2.5.29.7.78,1.29,1.44,1.78.67.48,1.44.87,2.33,1.17.89.3,1.7.52,2.44.67,2.07.37,4.14.39,6.22.05,2.07-.33,4.07-.87,5.99-1.61,4.37-1.63,8.06-4,11.1-7.1,3.03-3.11,5.72-6.53,8.05-10.27,2.33-3.74,4.46-7.64,6.38-11.71,1.92-4.07,3.96-7.95,6.1-11.65h-4.44c-.59,0-1.07-.15-1.44-.44-.37-.29-.56-.63-.56-1v-1.67c0-.37.18-.72.56-1.05.37-.33.85-.5,1.44-.5h6.88l3.44-6.22c1.92-3.18,4.05-6.18,6.38-8.99,2.33-2.81,4.98-5.4,7.94-7.77,1.26-1.04,2.57-1.98,3.94-2.83,1.37-.85,2.76-1.68,4.16-2.5.44-.22,1.02-.54,1.72-.94.7-.41,1.4-.76,2.11-1.05.7-.29,1.41-.5,2.11-.61.7-.11,1.35.02,1.94.39.44.3.65.61.61.94-.04.33-.19.67-.44,1-.26.33-.57.63-.94.89-.37.26-.7.5-1,.72-.96.59-1.81,1.18-2.55,1.78-.74.59-1.52,1.37-2.33,2.33-1.26,1.48-2.31,3.05-3.16,4.72-.85,1.67-1.79,3.35-2.83,5.05-1.18,2.07-2.15,3.81-2.89,5.22-.74,1.41-1.35,2.59-1.83,3.55-.48.96-.87,1.78-1.17,2.44-.3.67-.55,1.3-.78,1.89h6.1c.59,0,1.09.17,1.5.5.41.33.61.69.61,1.05v1.67c0,.37-.2.7-.61,1-.41.3-.91.44-1.5.44h-8.1ZM32.03,66.85c-3.04,0-5.57-.79-7.6-2.39-2.04-1.59-3.57-3.64-4.61-6.16-.67-1.63-1.09-3.35-1.28-5.16-.19-1.81-.24-3.57-.17-5.27,0-3.03.42-6.01,1.28-8.94.85-2.92,1.96-5.73,3.33-8.44,1.37-2.7,3-5.25,4.88-7.66,1.89-2.4,3.9-4.64,6.05-6.72,4.44-4.29,9.4-7.77,14.87-10.43,5.48-2.66,11.28-4.4,17.43-5.22,3.55-.44,7.1-.57,10.66-.39,3.55.19,7.1.57,10.66,1.17,3.7.67,7.29,1.18,10.77,1.55,3.48.37,7.1.59,10.88.67,1.48-.07,3-.2,4.55-.39,1.55-.18,2.96-.61,4.22-1.28.29-.15.68-.33,1.17-.56.48-.22.96-.39,1.44-.5.48-.11.92-.11,1.33,0,.41.11.65.46.72,1.05-.22.67-.69,1.31-1.39,1.94-.7.63-1.48,1.22-2.33,1.78-.85.56-1.7,1.04-2.55,1.44-.85.41-1.54.72-2.05.94-2.96,1.33-6.01,2.2-9.16,2.61-3.15.41-6.31.54-9.49.39-3.18-.15-6.37-.46-9.55-.94-3.18-.48-6.33-.94-9.44-1.39-3.11-.44-6.25-.76-9.44-.94-3.18-.18-6.29-.09-9.32.28-3.04.37-5.99,1.11-8.88,2.22-2.89,1.11-5.59,2.78-8.1,5-1.7,1.78-3.16,3.44-4.38,5-1.22,1.55-2.35,3.29-3.39,5.22-1.7,3.11-3.07,6.4-4.11,9.88-1.04,3.48-1.48,6.96-1.33,10.43.07,1.55.29,3.09.67,4.61.37,1.52.96,2.89,1.78,4.11.81,1.22,1.85,2.2,3.11,2.94,1.26.74,2.77,1.07,4.55,1,1.41-.07,2.79-.33,4.16-.78,1.37-.44,2.65-1.04,3.83-1.78.89-.59,1.72-1.22,2.5-1.89s1.57-1.22,2.39-1.67c.81-.52,1.65-.7,2.5-.56.85.15,1.09.85.72,2.11-.3.89-.89,1.68-1.78,2.39-.89.7-1.7,1.39-2.44,2.05-1.26,1.11-2.57,2.18-3.94,3.22-1.37,1.04-2.77,1.96-4.22,2.77-1.44.82-2.94,1.46-4.5,1.94-1.55.48-3.22.72-5,.72Z"/>
      <path class="cls-2" d="M124.27,14.01c-2.96,5.48-6.03,10.92-9.21,16.32-3.18,5.4-6.38,10.84-9.6,16.32-3.22,5.48-6.42,10.97-9.6,16.48-3.18,5.51-6.22,11.12-9.1,16.82-.37.59-.82,1.44-1.33,2.55-.52,1.11-.7,2.15-.56,3.11,0,.67.33,1.17,1,1.5s1.59.24,2.77-.28c2-1.18,3.83-2.59,5.49-4.22,1.67-1.63,3.22-3.35,4.66-5.16,1.44-1.81,2.79-3.72,4.05-5.72,1.26-2,2.48-3.96,3.66-5.88.15-.37.5-.96,1.05-1.78.55-.81,1.09-1.22,1.61-1.22.37,0,.59.17.67.5.07.33.07.7,0,1.11-.07.41-.2.8-.39,1.17-.19.37-.32.63-.39.78-1.93,2.52-3.83,5.24-5.72,8.16-1.89,2.92-3.94,5.72-6.16,8.38-2.22,2.66-4.66,4.99-7.33,6.99s-5.66,3.33-8.99,4c-2.66.15-4.48-.5-5.44-1.94-.96-1.44-1.44-3.2-1.44-5.27s.33-4.2,1-6.38c.67-2.18,1.33-3.94,2-5.27,2.22-4.59,4.68-9.03,7.38-13.32,2.7-4.29,5.35-8.66,7.94-13.1,3.11-5.18,6.18-10.34,9.21-15.48,3.03-5.14,6.07-10.34,9.1-15.6.29-.52.54-1.02.72-1.5.18-.48.31-.98.39-1.5v-1.44c0-.59.04-1.07.11-1.44.29-.07.98-.18,2.05-.33,1.07-.15,2.26-.29,3.55-.44,1.29-.15,2.51-.29,3.66-.44,1.15-.15,1.98-.22,2.5-.22.59.22.87.81.83,1.78-.04.96-.09,1.63-.17,2Z"/>
      <path class="cls-2" d="M116.27,50.2c2.37-1.48,4.86-2.79,7.49-3.94,2.63-1.15,5.38-1.79,8.27-1.94,2.59-.15,5.01.3,7.27,1.33,2.26,1.04,3.9,2.66,4.94,4.88.52,1.41.78,3.04.78,4.88s-.2,3.57-.61,5.16c-.41,1.59-.83,3.09-1.28,4.5-.89,2.15-2.02,4.38-3.39,6.71-1.37,2.33-2.87,4.57-4.5,6.72-1.48,1.78-3.11,3.52-4.88,5.22-1.78,1.7-3.68,3.27-5.72,4.72-2.04,1.44-4.2,2.66-6.49,3.66-2.29,1-4.7,1.65-7.21,1.94-2.44.29-4.9.04-7.38-.78-2.48-.81-4.46-2.11-5.94-3.88-1.7-2.51-2.55-5.11-2.55-7.77,0-.96.09-2.02.28-3.16.19-1.15.43-2.24.72-3.27,1.63-4.88,4.24-9.49,7.83-13.82,3.59-4.33,7.68-8.05,12.27-11.16h.11ZM106.06,82.17c-.15.67-.28,1.3-.39,1.89-.11.59-.17.96-.17,1.11,0,.96.2,1.79.61,2.5.41.7,1.24,1.35,2.5,1.94,1.26.37,2.59.22,4-.44,1.4-.67,2.66-1.33,3.77-2-.07,0,0-.07.22-.22.22-.15.41-.22.55-.22,2.44-2.07,4.7-4.42,6.77-7.05,2.07-2.62,3.94-5.33,5.61-8.1,1.66-2.78,3.09-5.55,4.27-8.33,1.18-2.77,2.11-5.38,2.77-7.83.15-.37.26-.81.33-1.33.07-.52.11-1.07.11-1.67,0-1.04-.17-2-.5-2.89-.33-.89-.98-1.44-1.94-1.67-1.18-.15-2.42.11-3.72.78-1.3.67-2.39,1.33-3.27,2-2.59,1.93-5.09,4.18-7.49,6.77-2.41,2.59-4.57,5.29-6.49,8.1-1.93,2.81-3.55,5.62-4.88,8.44-1.33,2.81-2.22,5.4-2.66,7.77v.44Z"/>
      <path class="cls-2" d="M161.67,81.39l-7.33,7.99c-1.11,1.18-2.26,2.26-3.44,3.22-1.18.96-2.55,1.59-4.11,1.89-1.93.44-3.55.46-4.88.05-1.33-.41-2.39-1.13-3.16-2.16-.78-1.04-1.28-2.31-1.5-3.83-.22-1.52-.15-3.13.22-4.83.81-2.96,1.98-5.77,3.5-8.44,1.52-2.66,3.11-5.29,4.77-7.88,1.67-2.59,3.31-5.2,4.94-7.83,1.63-2.63,3-5.38,4.11-8.27.22-.67.44-1.48.67-2.44.22-.96.63-1.7,1.22-2.22.59-.44,1.33-.68,2.22-.72.89-.04,1.63-.13,2.22-.28.74-.15,1.54-.29,2.39-.44.85-.15,1.65-.18,2.39-.11.96,0,1.57.26,1.83.78.26.52.33,1.13.22,1.83-.11.7-.32,1.44-.61,2.22-.3.78-.56,1.46-.78,2.05-1.18,2.96-2.59,5.77-4.22,8.44-1.63,2.66-3.31,5.33-5.05,7.99-1.74,2.66-3.4,5.37-5,8.1-1.59,2.74-2.91,5.59-3.94,8.55-.59,1.33-.48,2.33.33,3,.81.67,1.89.59,3.22-.22,3.03-2.74,5.84-5.7,8.44-8.88,2.59-3.18,5-6.49,7.21-9.93,2.22-3.44,4.31-6.99,6.27-10.66,1.96-3.66,3.83-7.31,5.61-10.93.37-.96.85-1.54,1.44-1.72.59-.18,1.4-.35,2.44-.5.89-.15,1.87-.31,2.94-.5,1.07-.18,2.02-.24,2.83-.17.96.15,1.53.57,1.72,1.28.18.7.13,1.57-.17,2.61-.3,1.04-.76,2.15-1.39,3.33-.63,1.18-1.28,2.35-1.94,3.5-.67,1.15-1.3,2.18-1.89,3.11-.59.93-1,1.57-1.22,1.94-1.7,2.89-3.44,5.81-5.22,8.77-1.78,2.96-3.4,5.92-4.88,8.88-.59,1.33-1.11,2.74-1.55,4.22-.44,1.48-.67,2.89-.67,4.22.15,1.55.85,2.42,2.11,2.61,1.26.19,2.52-.02,3.77-.61,1.33-.67,2.59-1.54,3.77-2.61,1.18-1.07,2.29-2.26,3.33-3.55,1.04-1.29,2-2.61,2.89-3.94.89-1.33,1.7-2.59,2.44-3.77,1.78-2.81,3.4-5.79,4.88-8.94,1.48-3.14,2.63-6.27,3.44-9.38.44-1.63.63-3.14.55-4.55-.07-.81-.2-1.52-.39-2.11-.19-.59-.24-1.22-.17-1.89.07-.74.33-1.46.78-2.16.44-.7.98-1.29,1.61-1.78.63-.48,1.31-.79,2.05-.94.74-.15,1.48-.07,2.22.22.81.37,1.39.89,1.72,1.55s.54,1.41.61,2.22c.07.81.04,1.65-.11,2.5-.15.85-.3,1.65-.44,2.39-.37,1.93-.89,3.7-1.55,5.33-.67,1.63-1.48,3.29-2.44,4.99-1.93,3.77-4.02,7.33-6.27,10.66-2.26,3.33-4.79,6.55-7.6,9.66-2.29,2.74-4.83,5.25-7.6,7.55-2.77,2.29-5.98,3.85-9.6,4.66-1.7.37-3.35.39-4.94.05-1.59-.33-2.9-1.24-3.94-2.72-1.04-1.48-1.52-3.16-1.44-5.05.07-1.89.11-3.68.11-5.38Z"/>
    </g>
    <g class="cls-1">
      <path class="cls-3" d="M220.41,95.75h-13.36l11.4-66.18h-19.58l2.28-13.28h51.76l-2.28,13.28h-18.82l-11.4,66.18Z"/>
      <path class="cls-3" d="M252.46,54.5l-12.47-1.3c1.49-5.31,4.08-9.36,7.76-12.14,3.68-2.78,8.34-4.17,13.98-4.17s10.18,1.42,13.27,4.27c3.09,2.85,4.64,6.63,4.64,11.34,0,1.65-.15,3.41-.44,5.28s-1.38,6.97-3.26,15.3c-1.57,6.86-2.35,11.66-2.35,14.39,0,2.54.43,5.3,1.28,8.28h-12.71c-.52-2.11-.84-4.29-.95-6.54-1.81,2.54-3.89,4.48-6.24,5.83-2.35,1.34-4.69,2.01-7.02,2.01-3.69,0-6.79-1.52-9.29-4.55s-3.76-7.08-3.76-12.14c0-5.82,1.48-10.3,4.44-13.44,2.93-3.14,7.84-5.04,14.74-5.69,6.07-.61,10.13-1.35,12.19-2.22.67-2.2,1.01-3.96,1.01-5.26,0-1.73-.59-3.13-1.79-4.2-1.19-1.06-2.81-1.6-4.86-1.6-4.47,0-7.2,2.19-8.19,6.56ZM264.18,68.92c-.78.25-1.78.49-3.02.7-5.82.87-9.66,2.03-11.51,3.49-1.85,1.46-2.78,3.41-2.78,5.86,0,1.91.53,3.46,1.58,4.65,1.05,1.19,2.39,1.78,4,1.78s3.31-.49,4.86-1.49c1.55-.99,2.79-2.38,3.72-4.16s1.82-4.71,2.68-8.78l.47-2.05Z"/>
      <path class="cls-3" d="M280.25,95.75l13.61-79.46h12.79l-13.66,79.46h-12.74Z"/>
      <path class="cls-3" d="M346.31,71.79h-32.03v1.46c0,3.87.9,6.96,2.71,9.27,1.81,2.31,3.97,3.47,6.5,3.47,4.19,0,7.5-2.67,9.92-8.02l11.44,2.33c-2.24,5.6-5.22,9.79-8.94,12.57-3.72,2.78-7.9,4.17-12.52,4.17-6.14,0-11.25-2.39-15.31-7.18-4.06-4.79-6.1-11.28-6.1-19.48,0-8.85,2.31-16.65,6.94-23.39,4.62-6.74,11.09-10.11,19.4-10.11,5.6,0,10.14,2.12,13.63,6.37,3.49,4.25,5.23,10.38,5.23,18.4,0,3.79-.29,7.17-.87,10.14ZM335.53,62.31l.05-1.52c0-4.37-.8-7.6-2.41-9.7-1.61-2.1-3.7-3.14-6.26-3.14s-4.96,1.21-7.07,3.63c-2.11,2.42-3.53,6-4.25,10.73h19.95Z"/>
    </g>
  </g>
</svg>